<?xml version="1.0" standalone="no"?>
<!DOCTYPE svg PUBLIC "-//W3C//DTD SVG 20010904//EN"
 "http://www.w3.org/TR/2001/REC-SVG-20010904/DTD/svg10.dtd">
<svg version="1.0" xmlns="http://www.w3.org/2000/svg"
 width="2560.000000pt" height="1440.000000pt" viewBox="0 0 2560.000000 1440.000000"
 preserveAspectRatio="xMidYMid meet">

<g transform="translate(0.000000,1440.000000) scale(0.100000,-0.100000)"
fill="#000000" stroke="none">
<path d="M16615 8650 c-603 -91 -1085 -423 -1332 -915 -61 -120 -114 -260 -82
-215 11 15 10 3 -6 -76 -4 -23 -3 -25 4 -9 14 30 13 11 -9 -114 -22 -127 -25
-251 -9 -368 11 -83 59 -241 85 -283 10 -16 13 -18 8 -5 -58 162 -79 298 -71
459 18 362 191 740 463 1011 126 125 243 209 406 290 288 142 590 204 937 192
390 -14 709 -123 1011 -346 93 -68 270 -239 270 -260 0 -8 -17 -33 -37 -55
l-38 -40 51 44 c29 25 52 52 53 61 1 23 -208 222 -308 293 -167 119 -369 215
-581 277 -102 30 -107 39 -8 13 33 -8 62 -13 65 -11 7 8 -165 45 -285 61 -155
22 -431 20 -587 -4z m-841 -372 c-142 -123 -288 -293 -374 -433 -50 -81 -156
-297 -165 -337 -4 -16 -10 -28 -14 -28 -9 0 -7 87 3 97 4 4 5 -6 1 -22 -3 -17
12 13 34 66 38 94 118 249 127 249 3 0 2 -5 -2 -12 -4 -7 -3 -8 5 -4 6 4 9 12
6 17 -14 22 150 226 258 322 67 59 166 136 176 137 3 0 -22 -23 -55 -52z"/>
<path d="M8553 8650 c-505 -49 -941 -244 -1249 -557 -111 -113 -175 -204 -242
-343 -48 -99 -107 -269 -97 -278 2 -3 0 -13 -6 -23 -7 -14 -6 -19 3 -19 11 0
11 -2 0 -8 -8 -5 -10 -16 -6 -27 4 -10 3 -16 -2 -13 -5 4 -9 -17 -8 -48 0 -33
-4 -54 -10 -54 -6 0 -5 -4 3 -9 7 -5 9 -11 4 -14 -14 -9 13 -240 42 -363 27
-111 90 -274 106 -274 5 0 9 -6 9 -14 0 -8 4 -16 8 -18 5 -1 23 -24 41 -50 46
-69 46 -59 0 18 -75 122 -132 275 -160 424 -17 93 -14 309 5 399 142 648 717
1112 1501 1211 125 16 424 13 555 -5 425 -60 779 -222 1051 -483 137 -131 224
-245 294 -387 69 -140 102 -256 116 -408 18 -199 -10 -389 -86 -575 -41 -101
-31 -99 13 3 97 223 124 469 77 695 -25 121 -82 280 -130 365 -124 218 -339
425 -606 586 -118 70 -83 61 47 -14 137 -78 242 -157 364 -272 l95 -89 -85 88
c-272 281 -673 474 -1121 540 -132 20 -403 28 -526 16z m-768 -241 c-285 -159
-476 -327 -628 -556 -34 -51 -63 -90 -65 -88 -2 1 9 27 24 57 115 227 387 472
679 609 118 56 114 47 -10 -22z"/>
<path d="M2955 8641 c-13 -7 -15 -10 -5 -10 8 -1 -9 -17 -37 -36 -28 -19 -59
-45 -68 -57 -13 -19 -17 -20 -25 -9 -7 12 -10 10 -14 -10 -11 -51 -48 -1149
-43 -1264 9 -208 60 -400 157 -597 50 -103 137 -238 189 -298 17 -19 4 3 -28
50 -121 171 -222 400 -260 587 -27 132 -27 256 3 943 25 591 23 574 93 623 63
44 170 34 214 -19 12 -14 14 -125 14 -713 0 -761 -2 -738 61 -936 123 -384
441 -700 838 -829 209 -68 269 -71 1356 -58 691 8 798 8 818 -5 35 -21 55 -78
50 -138 l-5 -50 14 35 c13 30 13 68 1 142 -2 9 -12 24 -23 32 -11 9 -15 16 -8
16 7 0 30 -17 53 -38 22 -22 40 -37 40 -34 0 14 -46 64 -76 82 l-35 22 -937
-7 c-834 -6 -947 -5 -1028 9 -539 94 -945 510 -1014 1041 l-9 70 4 -70 c10
-196 116 -448 268 -640 50 -63 158 -163 247 -228 14 -10 3 -6 -25 9 -116 62
-262 202 -349 333 -67 100 -162 303 -188 401 -22 84 -22 93 -25 813 -2 639 -5
731 -18 758 -15 29 -15 30 2 20 14 -8 37 -27 75 -64 1 -1 5 -155 8 -342 l6
-340 -1 341 0 341 -26 34 c-53 69 -200 119 -264 90z"/>
<path d="M13310 8640 c-829 -7 -822 -7 -1028 -66 -375 -109 -689 -349 -890
-681 -29 -49 -56 -100 -59 -115 -3 -16 -10 -28 -15 -28 -5 0 -7 -4 -4 -9 3 -5
-6 -42 -20 -82 -56 -167 -73 -262 -74 -419 -1 -25 6 -265 15 -535 8 -269 15
-560 15 -645 1 -120 4 -159 15 -174 13 -18 15 -7 15 101 0 66 -7 347 -16 624
-17 534 -15 625 17 776 122 596 545 1034 1124 1164 115 26 485 36 1414 40
l655 2 29 -33 c27 -30 29 -37 25 -97 -3 -55 -2 -61 9 -41 7 13 12 47 13 75 0
47 -4 57 -37 94 l-38 42 33 -17 c17 -9 32 -14 32 -11 0 3 -19 15 -42 25 -38
17 -64 19 -233 18 -104 -1 -534 -5 -955 -8z m-1341 -214 c-2 -2 -51 -39 -108
-81 -195 -147 -358 -331 -455 -516 -27 -50 -50 -89 -52 -86 -6 6 43 120 77
179 101 172 284 354 474 471 52 32 78 46 64 33z"/>
<path d="M20365 8639 c-719 -49 -1108 -216 -1268 -544 -36 -74 -78 -213 -76
-257 0 -12 9 10 18 50 10 40 20 74 22 77 3 2 5 -78 7 -178 1 -100 7 -207 13
-237 12 -56 48 -164 54 -158 2 2 -5 39 -16 83 -60 251 17 595 171 767 127 142
360 243 682 297 287 48 392 54 1128 56 382 1 788 0 902 -2 l208 -4 21 -41 c23
-45 20 -93 -8 -136 -21 -34 -9 -38 15 -5 43 62 39 133 -10 189 l-30 34 -232 2
-231 2 225 6 c124 3 -157 6 -625 6 -467 1 -904 -3 -970 -7z m-1106 -388 c-33
-44 -81 -119 -106 -168 -39 -77 -44 -83 -38 -48 10 67 65 164 132 232 34 35
65 63 68 63 3 0 -22 -36 -56 -79z"/>
<path d="M17538 8573 c7 -3 16 -2 19 1 4 3 -2 6 -13 5 -11 0 -14 -3 -6 -6z"/>
<path d="M17610 8550 c8 -5 20 -10 25 -10 6 0 3 5 -5 10 -8 5 -19 10 -25 10
-5 0 -3 -5 5 -10z"/>
<path d="M19605 8111 c-170 -137 -243 -330 -185 -484 41 -108 151 -195 293
-231 178 -46 492 -51 1037 -16 384 24 770 29 900 11 302 -42 491 -143 570
-304 91 -186 76 -477 -36 -701 -48 -96 -91 -152 -177 -232 -63 -59 -66 -63
-23 -33 187 131 316 412 316 686 0 120 -19 204 -68 303 -46 94 -107 155 -209
208 -157 82 -313 106 -673 105 -135 0 -400 -10 -590 -22 -733 -47 -1028 -22
-1204 98 -104 72 -142 149 -134 274 7 111 49 190 159 300 48 48 87 87 86 87
-1 0 -29 -22 -62 -49z"/>
<path d="M17810 8008 c0 -25 -174 -211 -266 -284 -49 -39 -172 -133 -274 -209
-311 -232 -336 -259 -306 -327 12 -28 14 -30 15 -10 1 12 7 41 14 63 14 49 39
71 412 351 263 198 435 351 435 386 0 11 -7 25 -15 32 -12 10 -15 10 -15 -2z"/>
<path d="M17751 7983 c-2 -32 -195 -197 -483 -414 -310 -234 -358 -275 -358
-308 0 -13 2 -13 9 -2 5 7 13 11 19 7 6 -3 12 4 14 16 2 17 84 84 298 245 366
276 522 417 507 455 -4 9 -6 9 -6 1z"/>
<path d="M15844 7918 c-226 -251 -333 -517 -321 -803 10 -242 101 -452 276
-637 106 -112 189 -174 321 -242 205 -105 364 -144 611 -153 185 -6 279 3 428
43 198 53 362 143 635 348 295 220 468 336 501 336 40 0 98 -41 119 -83 30
-64 23 -80 -71 -180 l-86 -92 98 98 97 98 -6 42 c-4 23 -18 61 -32 85 -22 37
-34 46 -56 44 -3 -1 -11 5 -18 13 -9 11 -7 13 12 9 21 -4 21 -4 3 5 -11 5 -45
10 -76 10 -43 1 -64 -4 -90 -22 -148 -101 -330 -231 -467 -334 -231 -174 -348
-241 -532 -304 -141 -48 -237 -63 -415 -63 -178 1 -296 20 -447 73 -45 17 -84
28 -86 26 -4 -4 82 -37 146 -55 23 -7 42 -17 42 -21 0 -7 -50 4 -69 15 -5 3
-26 8 -47 11 -58 8 -251 106 -340 173 -159 118 -308 303 -369 457 -139 352
-53 755 232 1082 73 84 78 99 7 21z m2419 -1088 c-31 -13 -224 -149 -448 -315
-259 -193 -347 -248 -516 -321 -141 -60 -261 -85 -445 -91 -90 -3 -164 -2
-167 3 -3 5 57 9 137 10 294 1 521 81 810 286 56 39 106 77 112 85 6 7 14 13
17 13 3 0 16 9 29 20 29 25 147 111 234 170 36 25 94 66 129 91 69 51 81 57
110 58 18 0 18 -1 -2 -9z m-1796 -676 c-3 -3 -12 -4 -19 -1 -8 3 -5 6 6 6 11
1 17 -2 13 -5z"/>
<path d="M18174 7888 l-19 -23 23 19 c21 18 27 26 19 26 -2 0 -12 -10 -23 -22z"/>
<path d="M11809 7853 c-13 -16 -12 -17 4 -4 9 7 17 15 17 17 0 8 -8 3 -21 -13z"/>
<path d="M11746 7763 c-53 -83 -91 -157 -123 -242 -59 -156 -56 -126 -62 -918
-4 -488 -3 -729 4 -722 6 6 12 275 15 742 l6 732 26 90 c33 112 83 223 142
315 25 38 43 70 41 70 -3 0 -25 -30 -49 -67z"/>
<path d="M19014 7710 c0 -58 1 -81 3 -52 2 28 2 76 0 105 -2 28 -3 5 -3 -53z"/>
<path d="M10051 7622 c101 -203 127 -327 107 -511 -38 -362 -257 -648 -638
-837 -111 -55 -322 -128 -349 -121 -14 4 -14 5 1 6 41 3 208 67 306 117 165
85 268 159 378 268 102 102 160 178 208 273 35 70 33 82 -3 17 -15 -28 -33
-58 -39 -65 -7 -8 -38 -50 -71 -94 -185 -252 -478 -426 -851 -506 -144 -31
-501 -34 -655 -5 -205 38 -428 127 -589 234 -88 59 -242 205 -291 277 -39 56
-62 77 -30 28 77 -120 206 -247 334 -330 47 -31 102 -67 121 -79 48 -31 138
-70 240 -105 47 -15 78 -28 69 -28 -46 -2 -313 110 -428 180 -137 83 -298 237
-383 369 -125 191 -162 308 -161 505 1 142 23 237 83 363 21 45 37 82 35 82
-12 0 -88 -169 -111 -247 -37 -122 -39 -289 -6 -413 54 -197 133 -332 281
-481 289 -291 746 -454 1216 -436 823 33 1439 566 1364 1180 -15 121 -40 202
-102 320 -61 117 -90 149 -36 39z m-1668 -1479 c-7 -2 -19 -2 -25 0 -7 3 -2 5
12 5 14 0 19 -2 13 -5z m747 -3 c-14 -4 -34 -8 -45 -8 -16 0 -15 2 5 8 14 4
34 8 45 8 16 0 15 -2 -5 -8z m-605 -20 c3 -5 1 -10 -4 -10 -6 0 -11 5 -11 10
0 6 2 10 4 10 3 0 8 -4 11 -10z m528 3 c-7 -2 -21 -2 -30 0 -10 3 -4 5 12 5
17 0 24 -2 18 -5z m-486 -9 c-3 -3 -12 -4 -19 -1 -8 3 -5 6 6 6 11 1 17 -2 13
-5z m343 -4 c0 -5 -4 -10 -10 -10 -5 0 -10 5 -10 10 0 6 5 10 10 10 6 0 10 -4
10 -10z m67 4 c-3 -3 -12 -4 -19 -1 -8 3 -5 6 6 6 11 1 17 -2 13 -5z m-150
-10 c-3 -3 -12 -4 -19 -1 -8 3 -5 6 6 6 11 1 17 -2 13 -5z m50 0 c-3 -3 -12
-4 -19 -1 -8 3 -5 6 6 6 11 1 17 -2 13 -5z"/>
<path d="M3234 7370 c0 -102 2 -143 3 -92 2 50 2 134 0 185 -1 50 -3 9 -3 -93z"/>
<path d="M15171 7454 c0 -11 3 -14 6 -6 3 7 2 16 -1 19 -3 4 -6 -2 -5 -13z"/>
<path d="M20965 7448 c-88 -4 -248 -14 -355 -22 -107 -7 -321 -13 -474 -12
-186 1 -263 -2 -230 -8 118 -21 660 -10 984 19 25 2 167 7 315 11 149 4 288
10 310 14 54 11 -348 9 -550 -2z"/>
<path d="M21588 7443 c18 -2 45 -2 60 0 15 2 0 4 -33 4 -33 0 -45 -2 -27 -4z"/>
<path d="M21703 7433 c9 -2 23 -2 30 0 6 3 -1 5 -18 5 -16 0 -22 -2 -12 -5z"/>
<path d="M19818 7423 c6 -2 18 -2 25 0 6 3 1 5 -13 5 -14 0 -19 -2 -12 -5z"/>
<path d="M21768 7423 c7 -3 16 -2 19 1 4 3 -2 6 -13 5 -11 0 -14 -3 -6 -6z"/>
<path d="M15181 7384 c0 -11 3 -14 6 -6 3 7 2 16 -1 19 -3 4 -6 -2 -5 -13z"/>
<path d="M21957 6832 c10 -70 8 -108 -4 -120 -7 -7 -13 -19 -13 -25 0 -7 5 -6
11 3 8 11 9 8 4 -15 -3 -16 -7 -38 -8 -47 -1 -10 -5 -18 -10 -18 -4 0 -6 -4
-3 -9 14 -22 -98 -153 -189 -222 -73 -55 -223 -123 -348 -158 -253 -71 -464
-82 -1417 -72 -404 4 -618 9 -475 10 352 4 462 4 945 2 467 -2 553 2 730 30
336 53 536 151 675 329 55 71 102 162 76 145 -6 -3 -11 14 -13 37 l-3 43 -13
-53 c-54 -232 -312 -406 -700 -472 -207 -35 -354 -40 -1185 -40 l-811 0 -39
-26 c-37 -24 -77 -90 -76 -124 0 -8 5 -2 11 13 6 18 15 26 24 23 9 -3 16 4 20
19 6 25 40 62 49 53 3 -3 -8 -31 -25 -63 -34 -64 -36 -79 -15 -115 l14 -25 1
30 c0 44 34 126 61 148 23 19 40 20 780 14 481 -5 814 -3 915 3 460 30 738
127 943 329 118 116 155 227 115 344 -18 54 -33 69 -27 29z"/>
<path d="M7500 6760 c6 -11 13 -20 16 -20 2 0 0 9 -6 20 -6 11 -13 20 -16 20
-2 0 0 -9 6 -20z"/>
<path d="M10360 6600 c-6 -11 -8 -20 -6 -20 3 0 10 9 16 20 6 11 8 20 6 20 -3
0 -10 -9 -16 -20z"/>
<path d="M18209 6423 l-34 -38 38 34 c20 19 37 36 37 38 0 8 -8 0 -41 -34z"/>
<path d="M18144 6368 l-19 -23 23 19 c21 18 27 26 19 26 -2 0 -12 -10 -23 -22z"/>
<path d="M3165 6290 c10 -11 20 -20 23 -20 3 0 -3 9 -13 20 -10 11 -20 20 -23
20 -3 0 3 -9 13 -20z"/>
<path d="M16160 6275 c0 -7 61 -37 66 -33 2 3 -12 12 -31 21 -19 9 -35 15 -35
12z"/>
<path d="M4400 5679 c-79 -4 -50 -6 118 -7 122 -1 222 1 222 6 0 8 -190 9
-340 1z"/>
<path d="M5033 5683 c9 -2 23 -2 30 0 6 3 -1 5 -18 5 -16 0 -22 -2 -12 -5z"/>
<path d="M5127 5683 c18 -2 50 -2 70 0 21 2 7 4 -32 4 -38 0 -55 -2 -38 -4z"/>
</g>
</svg>
